<svg aria-hidden="true" style="position:absolute;width:0;height:0;overflow:hidden" xmlns="http://www.w3.org/2000/svg">
<defs>
<symbol id="icon-burger" viewBox="0 0 12 20"><path d="M0 1H20" stroke="#D41443"/><path d="M0 7H20" stroke="#D41443"/><path d="M0 13H20" stroke="#D41443"/>
</symbol>
<symbol id="icon-mobile-close" viewBox="0 0 16 16" fill="none"><path d="M1.25928 1L14.7408 15" stroke="white"/><path d="M1 14.7407L15 1.25924" stroke="white"/>
</symbol>
<symbol id="icon-mobile-button" viewBox="0 0 8 7" fill="none"><path d="M1.10693 1L6.3648 5L1.10693 9" stroke="#D41443" stroke-width="3" stroke-linecap="round" stroke-linejoin="round"/>
</symbol>
<symbol id="icon-button-mark" viewBox="0 0 22 32">
<path d="M4.38 0.002c-0.882 0.031-1.668 0.414-2.228 1.012l-0.002 0.002c-0.534 0.57-0.862 1.339-0.862 2.185 0 0.922 0.39 1.753 1.014 2.337l0.002 0.002 11.197 10.462-11.197 10.462c-0.626 0.586-1.015 1.416-1.015 2.338 0 0.845 0.328 1.614 0.863 2.186l-0.002-0.002c0.586 0.626 1.416 1.015 2.338 1.015 0.846 0 1.614-0.328 2.186-0.863l-0.002 0.002 13.7-12.8c0.625-0.586 1.015-1.416 1.015-2.338s-0.39-1.753-1.013-2.337l-0.002-0.002-13.7-12.8c-0.57-0.534-1.339-0.862-2.185-0.862-0.038 0-0.076 0.001-0.114 0.002l0.005-0z"></path>
</symbol>
<symbol id="home" width="13" height="12" viewBox="0 0 13 12"><path d="M12.2399 5.77539C12.4646 5.53163 12.4429 5.15801 12.1914 4.94111L6.65187 0.159738C6.40043 -0.0571627 5.99731 -0.052619 5.75117 0.169981L0.19278 5.19603C-0.053367 5.41863 -0.065448 5.79177 0.166032 6.02912L0.305389 6.17228C0.536586 6.40963 0.910291 6.43793 1.13955 6.2353L1.55495 5.86834V11.2407C1.55495 11.5703 1.82571 11.8372 2.15961 11.8372H4.32629C4.66019 11.8372 4.93095 11.5703 4.93095 11.2407V7.48221H7.69456V11.2407C7.68976 11.5701 7.92867 11.8369 8.26258 11.8369H10.5587C10.8926 11.8369 11.1634 11.5701 11.1634 11.2405V5.94398C11.1634 5.94398 11.2781 6.04315 11.4197 6.16587C11.561 6.28835 11.8577 6.19014 12.0824 5.94614L12.2399 5.77539Z" fill="#D31342"/></symbol><symbol id="quote" viewBox="0 0 43 32"><path d="M32.014 0c1.929 0 3.75.52 5.464 1.561s3.107 2.537 4.179 4.488C42.686 8 43.2 10.298 43.2 12.943s-.643 5.225-1.929 7.74c-.429.911-1.2 2.081-2.314 3.512a63.368 63.368 0 0 1-3.214 3.707L31.693 32 28.8 27.187a22.03 22.03 0 0 0 5.336-4.683c1.543-1.821 2.314-3.491 2.314-5.008 0-.78-.171-1.409-.514-1.886a8.359 8.359 0 0 1-5.014 1.626c-1.329 0-2.593-.412-3.793-1.236a8.555 8.555 0 0 1-2.957-3.122c-.771-1.258-1.157-2.558-1.157-3.902 0-1.518.45-2.97 1.35-4.358a10.222 10.222 0 0 1 3.407-3.382C29.143.412 30.558 0 32.015 0zM8.936 0c1.929 0 3.75.52 5.464 1.561s3.107 2.537 4.179 4.488c1.029 1.951 1.543 4.249 1.543 6.894 0 1.864-.236 3.534-.707 5.008-.471 1.518-1.286 3.1-2.443 4.748-1.114 1.561-2.164 2.862-3.15 3.902-.986 1.084-2.7 2.884-5.143 5.398l-2.893-4.813a22.03 22.03 0 0 0 5.336-4.683c1.543-1.821 2.314-3.491 2.314-5.008 0-.78-.171-1.409-.514-1.886a8.359 8.359 0 0 1-5.014 1.626c-1.329 0-2.593-.412-3.793-1.236a8.555 8.555 0 0 1-2.957-3.122C.387 11.619.001 10.319.001 8.975c0-1.518.429-2.97 1.286-4.358S3.28 2.102 4.694 1.235C6.065.411 7.48-.001 8.937-.001z"/></symbol>
<symbol id="ellipse-white" viewBox="0 0 32 32">
<path d="M32 16c0 8.837-7.163 16-16 16s-16-7.163-16-16c0-8.837 7.163-16 16-16s16 7.163 16 16z"></path>
</symbol>
<symbol id="icon-close" viewBox="0 0 24 24">
<path d="M5.293 6.707l5.293 5.293-5.293 5.293c-0.391 0.391-0.391 1.024 0 1.414s1.024 0.391 1.414 0l5.293-5.293 5.293 5.293c0.391 0.391 1.024 0.391 1.414 0s0.391-1.024 0-1.414l-5.293-5.293 5.293-5.293c0.391-0.391 0.391-1.024 0-1.414s-1.024-0.391-1.414 0l-5.293 5.293-5.293-5.293c-0.391-0.391-1.024-0.391-1.414 0s-0.391 1.024 0 1.414z"></path>
</symbol>
</defs>
</svg>
</svg>
